<!DOCTYPE svg PUBLIC "-//W3C//DTD SVG 1.1//EN" "http://www.w3.org/Graphics/SVG/1.1/DTD/svg11.dtd">
<!-- Uploaded to: SVG Repo, www.svgrepo.com, Transformed by: SVG Repo Mixer Tools -->
<svg fill="#ffc9b0" height="256px" width="256px" version="1.1" id="Layer_1" xmlns="http://www.w3.org/2000/svg" xmlns:xlink="http://www.w3.org/1999/xlink" viewBox="0 0 511.47 511.47" xml:space="preserve" stroke="#ffc9b0">
<g id="SVGRepo_bgCarrier" stroke-width="0"/>
<g id="SVGRepo_tracerCarrier" stroke-linecap="round" stroke-linejoin="round"/>
<g id="SVGRepo_iconCarrier"> <g> <g> <g> <path d="M316.481,442.047H194.989c-4.799,0-8.678,3.888-8.678,8.678s3.879,8.678,8.678,8.678h121.492 c4.799,0,8.678-3.888,8.678-8.678S321.28,442.047,316.481,442.047z"/> <path d="M316.481,407.335H194.989c-4.799,0-8.678,3.888-8.678,8.678s3.879,8.678,8.678,8.678h121.492 c4.799,0,8.678-3.888,8.678-8.678S321.28,407.335,316.481,407.335z"/> <path d="M347.201,171.91l-1.77-1.128c-9.789-81.512-30.442-125.9-48.597-149.704c-10.318-13.546-25.782-21.374-42.973-21.07 c-17.035,0.156-32.612,8.14-42.73,21.929c-17.026,23.188-36.421,67.081-45.551,149.131l-1.31,0.842 c-29.67,19.013-47.382,51.33-47.382,86.432v140.132c0,62.308,50.688,112.996,112.996,112.996h51.703 c62.308,0,112.996-50.688,112.996-112.996V258.343C394.583,223.241,376.871,190.924,347.201,171.91z M177.634,276.41 c21.938-5.242,46.219-7.923,60.711-7.923h41.142c12.939,0,34.434,2.013,54.333,5.97c0,0.521,0.017,1.024,0.017,1.545v8.053 c0,2.708-0.234,5.354-0.564,7.966c-18.284-3.836-39.745-6.179-53.786-6.179h-41.142c-15.716,0-39.875,3.133-59.835,8.183 c-0.529-3.254-0.876-6.569-0.876-9.971V276.41z M377.227,398.475c0,52.736-42.895,95.64-95.64,95.64h-51.703 c-52.745,0-95.64-42.904-95.64-95.64V258.343c0-24.81,10.657-47.937,29.028-64.026c-0.113,1.362-0.182,2.812-0.286,4.2 c0,0.035-0.009,0.078-0.009,0.113c-0.512,6.951-0.946,14.084-1.31,21.365c-0.095,1.944-0.182,3.922-0.278,5.901 c-0.26,5.858-0.469,11.811-0.633,17.851c-0.061,2.352-0.139,4.669-0.191,7.064c-0.174,8.253-0.286,16.618-0.286,25.192v5.294 v2.76c0,7.064,1.015,13.885,2.742,20.411c0.165,0.616,0.304,1.25,0.477,1.866c0.469,1.597,1.015,3.167,1.579,4.729 c0.26,0.729,0.512,1.467,0.798,2.187c0.581,1.475,1.215,2.924,1.883,4.356c0.356,0.764,0.72,1.519,1.093,2.265 c0.694,1.38,1.414,2.734,2.187,4.061c0.434,0.746,0.894,1.484,1.354,2.222c0.798,1.284,1.605,2.551,2.473,3.784 c0.512,0.729,1.067,1.423,1.597,2.135c0.902,1.189,1.796,2.378,2.751,3.515c0.573,0.677,1.198,1.31,1.788,1.97 c2.048,2.256,4.2,4.4,6.491,6.413c0.521,0.46,1.015,0.963,1.553,1.414c0.894,0.746,1.848,1.423,2.786,2.135 c0.998,0.764,1.987,1.545,3.029,2.265c0.929,0.651,1.9,1.232,2.864,1.84c1.111,0.694,2.213,1.397,3.358,2.039 c0.963,0.547,1.953,1.05,2.951,1.553c1.206,0.616,2.421,1.206,3.662,1.762c0.989,0.443,1.987,0.868,2.994,1.267 c1.31,0.521,2.629,0.998,3.974,1.458c0.998,0.338,1.996,0.668,3.011,0.963c1.432,0.425,2.89,0.781,4.348,1.128 c0.972,0.226,1.927,0.469,2.916,0.659c1.64,0.312,3.315,0.547,4.99,0.764c0.842,0.104,1.666,0.26,2.517,0.339 c2.543,0.243,5.111,0.39,7.715,0.39h31.154c2.629,0,5.224-0.147,7.784-0.39c0.885-0.087,1.736-0.252,2.612-0.365 c1.666-0.217,3.324-0.443,4.955-0.764c1.041-0.2,2.057-0.469,3.081-0.712c1.414-0.338,2.82-0.677,4.2-1.085 c1.119-0.33,2.204-0.712,3.306-1.093c1.232-0.425,2.456-0.859,3.662-1.345c1.154-0.46,2.282-0.963,3.41-1.475 c1.076-0.495,2.143-0.998,3.193-1.536c1.189-0.607,2.36-1.241,3.515-1.909c0.894-0.512,1.77-1.059,2.647-1.605 c1.232-0.781,2.456-1.571,3.645-2.412c0.686-0.486,1.345-0.998,2.005-1.501c1.319-0.998,2.621-1.996,3.87-3.072 c0.364-0.312,0.712-0.651,1.076-0.981c16.471-14.64,26.919-35.918,26.919-59.644v-5.476v-2.577c0-8.47-0.122-16.748-0.304-24.923 c-0.061-2.647-0.156-5.198-0.234-7.793c-0.165-5.493-0.365-10.917-0.616-16.263c-0.13-2.629-0.26-5.233-0.399-7.802 c-0.312-5.606-0.686-11.099-1.085-16.523c-0.139-1.727-0.252-3.506-0.391-5.207c-0.087-1.128-0.156-2.308-0.252-3.428 c18.545,16.098,29.314,39.346,29.314,64.278V398.475z"/> </g> </g> </g> </g>
</svg>